<svg xmlns="http://www.w3.org/2000/svg" xmlns:xlink="http://www.w3.org/1999/xlink" width="100%" viewBox="0 0 326 150.02">
  <defs>
    <clipPath id="clip-contributers">
      <rect width="326" height="150.02"/>
    </clipPath>
  </defs>
  <g id="contributers" clip-path="url(#clip-contributers)">
    <g id="Grupo_5441" data-name="Grupo 5441">
      <g id="Grupo_5434" data-name="Grupo 5434" transform="translate(0 0)">
        <g id="Grupo_5429" data-name="Grupo 5429" transform="translate(2.214 2.214)">
          <path id="Caminho_1266" data-name="Caminho 1266" d="M66.268,1095.748c-28.686-10.6-62.044-1.451-81.372,22.209-19.273,23.595-21.9,57.663-6.1,83.807a72.84,72.84,0,0,0,32.4,28.609,8.791,8.791,0,0,0,1.214.54,73.229,73.229,0,0,0,43.252,4.671,70.792,70.792,0,0,0,19.853-7.2l.027.027.062-.075c19.721-10.7,34.2-30.381,37.6-53.022a77.564,77.564,0,0,0,.861-11.144A73.651,73.651,0,0,0,66.268,1095.748Z" transform="translate(31.51 -1091.375)" fill="#fff"/>
        </g>
        <g id="Grupo_5433" data-name="Grupo 5433">
          <path id="Caminho_1267" data-name="Caminho 1267" d="M65.322,1091.959c-29.559-10.919-63.932-1.495-83.848,22.885-19.859,24.312-22.565,59.417-6.29,86.356A75.054,75.054,0,0,0,8.57,1230.679a9.055,9.055,0,0,0,1.252.556,75.454,75.454,0,0,0,44.567,4.814,72.94,72.94,0,0,0,20.457-7.421l.027.028.064-.077c20.321-11.03,35.237-31.3,38.745-54.634a79.915,79.915,0,0,0,.887-11.483A75.892,75.892,0,0,0,65.322,1091.959ZM37,1209c2.641.266,5.279.429,7.878.506l.823.022c.951,4.35.7,8.816,2.344,12.947l-12.1.651A59.63,59.63,0,0,1,37,1209Zm37.8,14.874a13.023,13.023,0,0,0-6.557-2.332,64.418,64.418,0,0,0-8.043.28l-8.284.446,0-.008c-2.119-3.88-1.811-8.452-2.544-12.726a30.8,30.8,0,0,0,6.94-.879c2.533-.665,3.634-2.877,4.477-5.183,2.387-6.522,2.88-13.922,3.456-20.79q.158-1.876.284-3.753c.159-2.321-3.455-2.311-3.613,0a137.8,137.8,0,0,1-2.193,18.287c-.5,2.454-1.009,5.216-2.417,7.339-.427.644-.5.524-1.469.733a31.189,31.189,0,0,1-5.192.586,88.538,88.538,0,0,1-23.98-2.511c-1.552-.367-3.1-.778-4.617-1.266-.369-.119-.738-.24-1.1-.37l-.175-.061-.028-.022a4.93,4.93,0,0,1-.418-.454,23.252,23.252,0,0,1-2.187-4.806,96.451,96.451,0,0,1-4.1-19.493,130.724,130.724,0,0,1-.989-15.083,177.821,177.821,0,0,0,20.883-8.22,44.3,44.3,0,0,0,16.8-12.81,36.281,36.281,0,0,0,11.332,8.188c.139,3,.1,5.967.247,8.559.132,2.312,3.745,2.327,3.613,0-.445-7.818.426-17.594-4.638-24.192-1.122-4.211-4.046-9.174-6.968-11.318a16,16,0,0,0-5.57-2.306c-6.487-1.672-10.669-.307-17.367-.211-1.288.018-2.584.073-3.87.2a12.72,12.72,0,1,0-13.2,6.057,23.034,23.034,0,0,0-4.04,5.793,32.294,32.294,0,0,0-2.973,14.645c.038,2.916.668,6.2,2.332,8.441a115.014,115.014,0,0,0,.187,16.061,121.459,121.459,0,0,0,3.892,23.57c1.086,3.877,2.357,9.613,6.639,11.074a75.862,75.862,0,0,0,14.062,3.238,64.216,64.216,0,0,0-1.069,14.748l-15.838.852c-2.107.113-4.639-.085-6.212,1.6a4.412,4.412,0,0,0-.578.794,70.761,70.761,0,0,1-24.769-18.92c-19.058-22.858-21.464-56.357-6.1-81.791a71.472,71.472,0,0,1,74.8-32.827,71.57,71.57,0,0,1,55.841,58.31,72.478,72.478,0,0,1,.854,11.118A71.856,71.856,0,0,1,74.8,1223.878Z" transform="translate(35.431 -1087.454)"/>
          <g id="Grupo_5432" data-name="Grupo 5432" transform="translate(38.377 32.374)">
            <g id="Grupo_5431" data-name="Grupo 5431" transform="translate(0 36.396)">
              <path id="Caminho_1268" data-name="Caminho 1268" d="M93.045,1273.169a10.178,10.178,0,0,0,8.579,5.942c2.316.2,2.3-3.414,0-3.613a6.642,6.642,0,0,1-5.459-4.153,1.819,1.819,0,0,0-2.471-.648,1.85,1.85,0,0,0-.648,2.471Z" transform="translate(-58.774 -1235.881)"/>
              <path id="Caminho_1269" data-name="Caminho 1269" d="M107.91,1247.081c.015,1.906,1.758,2.63,3.234,3.316.287.133.489.392.369.115-.1-.224-.011.254-.023.328-.105.666-.089,1.185-.742,1.559-2.017,1.155-.2,4.279,1.824,3.12a5.371,5.371,0,0,0,2.378-5.921,3.217,3.217,0,0,0-1.558-2.118c-.376-.213-.793-.358-1.185-.539a3.8,3.8,0,0,0-.642-.316c-.5-.116-.048-.544-.041.456-.018-2.323-3.631-2.329-3.613,0Z" transform="translate(-65.336 -1224.943)"/>
              <g id="Grupo_5430" data-name="Grupo 5430" transform="translate(29.229 12.09)">
                <circle id="Elipse_54" data-name="Elipse 54" cx="1.76" cy="1.76" r="1.76" transform="translate(0 2.483)"/>
                <circle id="Elipse_55" data-name="Elipse 55" cx="1.76" cy="1.76" r="1.76" transform="translate(27.027)"/>
              </g>
              <path id="Caminho_1270" data-name="Caminho 1270" d="M97.128,1211.459a2.99,2.99,0,0,0-.441-.308,12.3,12.3,0,0,0-14.934,1.318,11.862,11.862,0,0,0-3.14,4.892,9.5,9.5,0,0,0-4.779.6,12.368,12.368,0,0,0-20.519-2.1,12.559,12.559,0,0,0-2.732,6.4c-5.652.774-11.719-.907-17.113,1.409-2.13.915-.292,4.028,1.824,3.12,2.558-1.1,5.949-.783,8.659-.789,2.211-.005,4.468.073,6.683-.147a12.1,12.1,0,0,0,1.591,4.367,12.449,12.449,0,0,0,23.114-6.163,2,2,0,0,0,.011-.256,2.058,2.058,0,0,0-.018-.312,13.269,13.269,0,0,0-.276-2.143,5.987,5.987,0,0,1,2.9-.406,12.063,12.063,0,0,0,.927,5.094c4.045,9.572,18.035,9.74,22.257.219A12.291,12.291,0,0,0,97.128,1211.459ZM62.9,1232.639a8.84,8.84,0,1,1,8.84-8.84A8.917,8.917,0,0,1,62.9,1232.639Zm34.111-6.359a8.539,8.539,0,1,1-1.92-11.865A8.611,8.611,0,0,1,97.012,1226.28Z" transform="translate(-32.524 -1209.225)" fill="#0057ff"/>
            </g>
            <path id="Caminho_1271" data-name="Caminho 1271" d="M63.545,1144.779a22.2,22.2,0,0,0-5.546,1.41,18.912,18.912,0,0,0-5.714,3.724,11.789,11.789,0,0,0,11.26-5.135Z" transform="translate(-41.125 -1144.779)" fill="#0057ff"/>
          </g>
        </g>
      </g>
      <g id="Grupo_5440" data-name="Grupo 5440" transform="translate(176)">
        <g id="Grupo_5435" data-name="Grupo 5435" transform="translate(2.29 2.291)">
          <path id="Caminho_1272" data-name="Caminho 1272" d="M462.477,1099.542c-28.656-10.586-61.98-1.45-81.287,22.186-19.253,23.57-21.876,57.6-6.1,83.719a72.764,72.764,0,0,0,32.367,28.578,8.776,8.776,0,0,0,1.214.539,73.145,73.145,0,0,0,43.206,4.667,70.724,70.724,0,0,0,19.832-7.194l.026.027.062-.074c19.7-10.693,34.161-30.349,37.561-52.967a77.557,77.557,0,0,0,.861-11.131A73.575,73.575,0,0,0,462.477,1099.542Z" transform="translate(-364.802 -1095.174)" fill="#fff"/>
        </g>
        <g id="Grupo_5439" data-name="Grupo 5439">
          <g id="Grupo_5438" data-name="Grupo 5438" transform="translate(33.091 18.198)">
            <g id="Grupo_5436" data-name="Grupo 5436" transform="translate(33.511 88.331)">
              <path id="Caminho_1273" data-name="Caminho 1273" d="M482.28,1286.765c.436.787,1.625,3.106,2.523,3.173a19.663,19.663,0,0,0,3.353-3.651,40.782,40.782,0,0,0,2.468-3.4c-2.7.529-7.284.038-8.99-.251A18.474,18.474,0,0,0,482.28,1286.765Z" transform="translate(-479.965 -1281.005)" fill="#0057ff"/>
              <path id="Caminho_1274" data-name="Caminho 1274" d="M488.895,1280.024a25.331,25.331,0,0,1-8.1-.251,1.688,1.688,0,0,0-2.108,1.606,16.3,16.3,0,0,0,.706,4.542,1.8,1.8,0,0,0,.168.427,1.876,1.876,0,0,0,.123.226,9.258,9.258,0,0,0,2.361,3.21c1.35.982,2.43.39,3.5-.641a24.02,24.02,0,0,0,2.655-3.1,28.311,28.311,0,0,0,2.584-3.57A1.688,1.688,0,0,0,488.895,1280.024Zm-3.578,4.335a18.625,18.625,0,0,1-1.86,2.24,20.416,20.416,0,0,1-1.026-1.932,4.567,4.567,0,0,1-.313-1.373,33.463,33.463,0,0,0,3.84.244C485.739,1283.812,485.522,1284.085,485.316,1284.359Z" transform="translate(-478.679 -1279.747)"/>
            </g>
            <path id="Caminho_1275" data-name="Caminho 1275" d="M486.006,1271.1c2.825.067,5.713-.2,8.113-1.827,1.765-1.194.1-4.08-1.681-2.875-1.938,1.313-4.156,1.427-6.432,1.372-2.143-.051-2.143,3.278,0,3.33Z" transform="translate(-447.658 -1185.479)"/>
            <path id="Caminho_1276" data-name="Caminho 1276" d="M502.354,1213.638a52.745,52.745,0,0,1,8.823.227c2.127.234,2.11-3.1,0-3.329a52.667,52.667,0,0,0-8.823-.227c-2.13.123-2.144,3.453,0,3.329Z" transform="translate(-454.775 -1161.154)"/>
            <path id="Caminho_1277" data-name="Caminho 1277" d="M459.449,1203.035a7.02,7.02,0,0,1,8.384-.633c1.824,1.136,3.5-1.743,1.681-2.875a10.409,10.409,0,0,0-12.419,1.154c-1.6,1.429.759,3.777,2.354,2.354Z" transform="translate(-435.541 -1155.83)"/>
            <path id="Caminho_1278" data-name="Caminho 1278" d="M484.792,1235.039c-1.014,3.139-1.629,8.487,3.018,8.788,2.139.138,2.131-3.192,0-3.33-1.2-.077-.006-3.959.192-4.573.66-2.044-2.554-2.919-3.21-.885Z" transform="translate(-447.517 -1171.454)"/>
            <path id="Caminho_1279" data-name="Caminho 1279" d="M509.35,1162.618c-.416,4.618-1.232,9.3-3.429,13.381a21.859,21.859,0,0,1-18.442,11.25l-.286-.023c.18-10.781-.25-21.525-1.238-24.731-.679-2.2-1.369-5.278-2.644-7.168a8.99,8.99,0,0,0-5.351-3.849,100.621,100.621,0,0,0-30.894-.986c-2.893.356-5.953.926-8.087,2.914s-2.91,4.968-3.536,7.8c-1.9,8.587-2.947,13.342-3.073,21.565h-.013c-5.75-5.293-12.179-14.916-12.945-22.693a6.027,6.027,0,0,1,.269-3.043,9.9,9.9,0,0,1,2.195-2.607c5.43-5.723,3.159-16.2,9.046-21.459,4.485-4,11.337-2.936,17.28-3.852,4.279-.662,8.287-2.447,12.432-3.689a50.149,50.149,0,0,1,25.91-.726,31.443,31.443,0,0,1,13.544,6.5,28.167,28.167,0,0,1,8.367,14.51A51.381,51.381,0,0,1,509.35,1162.618Z" transform="translate(-419.341 -1123.339)" fill="#0057ff"/>
            <g id="Grupo_5437" data-name="Grupo 5437" transform="translate(27.271 56.217)">
              <circle id="Elipse_56" data-name="Elipse 56" cx="1.622" cy="1.622" r="1.622" transform="translate(0 1.058)"/>
              <circle id="Elipse_57" data-name="Elipse 57" cx="1.622" cy="1.622" r="1.622" transform="translate(25.03)"/>
            </g>
          </g>
          <path id="Caminho_1280" data-name="Caminho 1280" d="M461.5,1095.622c-29.558-10.919-63.932-1.495-83.847,22.885-19.859,24.312-22.565,59.417-6.291,86.356a75.842,75.842,0,0,0,79.205,34.848c30.39-6.052,54.684-31.451,59.293-62.1a80,80,0,0,0,.887-11.482A75.892,75.892,0,0,0,461.5,1095.622Zm1.454,58.28a40.3,40.3,0,0,0-.568-4.426,28.968,28.968,0,0,0-1.564-5.8,15.079,15.079,0,0,0-2.163-4.009,10.874,10.874,0,0,0-1.029-1.132,9.738,9.738,0,0,0-4.207-2.557c-3.924-1.162-8.435-1.39-12.5-1.677l-.289-.018a97.669,97.669,0,0,0-15.387.111,30.935,30.935,0,0,0-9.656,1.755,10.37,10.37,0,0,0-2.6,1.54,9.75,9.75,0,0,0-2.505,2.831,24.575,24.575,0,0,0-2.554,7.587c-.616,2.674-1.087,5.4-1.551,8.062a79.514,79.514,0,0,0-1.014,8.677,47.353,47.353,0,0,1-6.211-8.741,32.7,32.7,0,0,1-2.927-6.871c-.6-2.131-1.4-4.826.274-6.613a17.874,17.874,0,0,0,3.6-4.914,30.451,30.451,0,0,0,1.854-6.026c.841-3.831,1.355-8.4,4.325-11.27,3.53-3.407,9.116-3,13.64-3.351,5.718-.446,10.786-2.668,16.236-4.225,10.677-3.052,23.644-2.735,33.478,2.871,11.647,6.64,13.6,20.691,12.547,32.889-.577,6.146-1.972,12.388-6.445,16.921-3.077,3.118-7.787,5.779-12.357,6.038A157.112,157.112,0,0,0,462.952,1153.9Zm-54.443,15.027a1.573,1.573,0,0,0,.022-.186,101.283,101.283,0,0,1,2.8-20.174,33.745,33.745,0,0,1,1.244-4.731c.068-.174.137-.348.212-.518l.008-.021a7.7,7.7,0,0,1,2.508-3.25l.062-.044a6.511,6.511,0,0,1,.594-.37,12.308,12.308,0,0,1,2.5-1,39.715,39.715,0,0,1,7.279-.924c.767-.062,1.535-.112,2.3-.157.378-.022.756-.043,1.134-.06l.378-.016q.679-.029,1.358-.05l.148,0q4.93-.136,9.858.21,1.907.134,3.808.342l.32.036c.481.054.96.114,1.44.176.168.021.335.041.5.064q.855.114,1.707.246.7.107,1.407.225a9.985,9.985,0,0,1,4.974,1.99c2.285,2.109,3.055,5.457,3.826,8.411.071.274.13.551.19.828.029.156.062.315.089.469a46.138,46.138,0,0,1,.569,5.383c.043.923.076,1.841.116,2.745.038.871.063,1.744.089,2.616.016.554.034,1.108.046,1.661.012.578.02,1.156.029,1.734s.019,1.174.023,1.761c0,.635,0,1.27,0,1.906,0,.511,0,1.022,0,1.533q-.008,1.724-.035,3.447c-.079,4.387-.234,8.774-.558,13.15a60.906,60.906,0,0,1-1.208,9.5c-.628,2.658-2.518,4.632-4.5,6.458a31.505,31.505,0,0,1-9.561,5.911c-7.243,2.915-15.695,3.609-22.879.132a20.226,20.226,0,0,1-8.015-6.6,21.581,21.581,0,0,1-2.777-6.834,79.122,79.122,0,0,1-1.948-17.484C408.506,1174.608,408.456,1171.766,408.509,1168.93Zm19.795,44.831a31.862,31.862,0,0,0,7.281.057,20.485,20.485,0,0,0,2.318,10.492q-3.846.089-7.692.007c-.754-.016-1.506-.044-2.256-.08C428.245,1220.755,428.353,1217.256,428.3,1213.761Zm31.716,18.911c-.143.052-.289.1-.433.148q-1.149-2.864-2.3-5.726c-.66-1.626-1.339-3.233-3.218-3.7a10.05,10.05,0,0,0-3.618.1c-1.3.153-2.607.278-3.915.383-1.574.127-3.151.224-4.729.3-2.334-2.736-3.107-7.262-2.859-10.882.155-.032.311-.064.466-.1a37.875,37.875,0,0,0,12.672-5.379c3.238-2.16,6.856-5.147,8.607-8.712,1.451-2.954,1.572-6.776,1.876-9.986.446-4.722.648-9.469.754-14.211,5.43-.185,11.118-3.331,14.772-7.033,5.127-5.2,6.759-12.23,7.42-19.276,1.023-11.841-.712-25.394-10.612-33.317-9.426-7.543-23.37-8.851-34.879-6.76-6.411,1.165-12.338,4.4-18.826,5.1-5.145.557-10.919.007-15.449,2.989-4,2.631-5.468,7.127-6.441,11.579a57.562,57.562,0,0,1-1.7,6.847,13.648,13.648,0,0,1-1.371,2.858,29.562,29.562,0,0,1-2.584,2.923c-1.919,2.276-1.589,5.2-.988,7.926a33.486,33.486,0,0,0,3.233,8.35,51.432,51.432,0,0,0,5.2,7.846c.879,1.108,1.8,2.181,2.777,3.205.384.4.843.987,1.36,1.461q-.05,2.057-.037,4.131a109.224,109.224,0,0,0,1.411,18.761,35.371,35.371,0,0,0,2.648,8.838,20.459,20.459,0,0,0,6.465,7.519,25.747,25.747,0,0,0,9.247,4.3,108.318,108.318,0,0,1-.322,10.883c-3.563-.269-7.107-.659-10.688-.921-4.059-.3-9.783.455-11.839,4.594-.086.175-.162.356-.239.538a70.606,70.606,0,0,1-20.76-16.925c-19.058-22.858-21.463-56.357-6.1-81.791a70.85,70.85,0,0,1,130.638,25.483,72.556,72.556,0,0,1,.854,11.118C506.354,1195.512,487.778,1222.59,460.02,1232.672Z" transform="translate(-360.746 -1091.117)"/>
        </g>
      </g>
    </g>
  </g>
</svg>
