<svg xmlns="http://www.w3.org/2000/svg" xmlns:xlink="http://www.w3.org/1999/xlink" width="460" height="454.279" viewBox="0 0 460 454.279"><defs><clipPath id="b"><rect width="460" height="454.28"/></clipPath></defs><g id="a" clip-path="url(#b)"><g transform="translate(-142.626 -122.116)"><g transform="translate(142.626 169.329)"><g transform="translate(105.19 60.883)"><g transform="translate(0 44.198)"><g transform="translate(46.07 43.069)"><path d="M414.257,465.543c-1.849.269-5.736,1.764-5.329,4.628.439,3.091,5.166,3.6,8.265,3.985a23.64,23.64,0,0,0,9.258-.937c1.17-.329,2.575-.956,2.641-2.17.151-2.794-3.049-4.5-4.976-5.267S414.257,465.543,414.257,465.543Z" transform="translate(-407.408 -463.818)" fill="#0057ff"/><path d="M412.768,463.01c-3.881.708-9.018,4.863-5.02,8.791,1.809,1.778,4.629,2.147,7.025,2.472a24.764,24.764,0,0,0,10.951-.823c5.939-1.936,3.457-7.425-.944-9.6-3.472-1.713-7.882-1.139-11.63-.9-1.833.119-1.846,2.988,0,2.868,1.933-.126,3.876-.2,5.812-.176,2.085.025,7.866.669,7.207,3.849-.386,1.866-5.31,2.121-6.974,2.187a24.6,24.6,0,0,1-5.8-.513c-1.433-.29-4.836-.9-4.013-3.195.495-1.376,2.923-1.98,4.146-2.2C415.344,465.445,414.576,462.68,412.768,463.01Z" transform="translate(-406.3 -462.668)" fill="#0057ff"/></g><g transform="translate(0 85.423)"><path d="M339.32,544.839c.867,2.49,3.294,4.343,4.341,6.77s1.6,5.967-1.5,7.9a6.254,6.254,0,0,1-3.706.17c-4.8-2.317-7.081-5.579-9.133-9.676a7.8,7.8,0,0,1-.79-6.149c.75-2.174,3.367-5.239,6.076-4.889C337.4,539.325,338.254,541.78,339.32,544.839Z" transform="translate(-326.931 -537.538)" fill="#0057ff"/><path d="M337,544.181c1.279,3.068,4.251,5.292,4.95,8.594.435,2.052-.133,4.689-2.765,4.625-1.813-.044-3.579-1.4-4.89-2.578-2.491-2.235-5.758-6.656-5.6-10.167.092-2.014,1.811-4.742,3.9-5.226,2.824-.655,3.723,2.812,4.4,4.752.607,1.73,3.379.986,2.766-.762-.867-2.472-1.771-5.344-4.368-6.481-2.455-1.075-5-.055-6.8,1.75-4.854,4.865-2.094,11.252,1.589,15.918,2.783,3.526,9.155,8.5,13.238,3.881a7.137,7.137,0,0,0,1.291-6.473c-.8-3.429-3.643-5.46-4.95-8.594C339.062,541.74,336.285,542.477,337,544.181Z" transform="translate(-325.991 -536.499)" fill="#0057ff"/></g><g transform="translate(67.811)"><path d="M456.957,403.056c-1.3-2.424-1.547-5.277-2.732-7.759s-3.311-5.53-5.851-5.188c-.752.1-1.583,1.665-1.617,2.05-.408,4.605.831,8.457,2.718,12.813a11.99,11.99,0,0,0,3.761,5.191c1.747,1.229,4.843,2.044,5.71.18C459.839,408.425,458.555,406.036,456.957,403.056Z" transform="translate(-445.255 -388.653)" fill="#0057ff"/><path d="M457.137,401.27c-2.074-4.3-2.7-12.684-8.758-13.618-5.932-.914-4.082,8.671-3.205,11.663,1.443,4.926,4.033,11.844,10,12.444a3.687,3.687,0,0,0,4.208-2.425c.915-2.739-1.009-5.752-2.244-8.064-.87-1.629-3.347-.181-2.477,1.448.683,1.279,2.847,4.286,1.824,5.7-1.055,1.461-3.74-.564-4.651-1.554-2.345-2.548-3.655-6.766-4.35-10.1-.276-1.326-.945-3.949-.3-5.251,1.148-2.3,3.269.846,4,2.055,1.706,2.81,2.046,6.2,3.469,9.145C455.463,404.38,457.937,402.927,457.137,401.27Z" transform="translate(-444.197 -387.59)" fill="#0057ff"/></g></g><g transform="translate(5.847)"><g transform="translate(76.718 16.474)"><path d="M472.493,347.451c1.461,2.509,5.565,6.687,8.334,7.712a2.23,2.23,0,0,0,1.16.167,2.363,2.363,0,0,0,1.566-1.366,5.7,5.7,0,0,0-.266-4.561,31.173,31.173,0,0,0-4.292-7.665Z" transform="translate(-471.014 -340.318)" fill="#0057ff"/><path d="M470.156,347.12c1.844,2.977,7.249,9.849,11.434,8.406,6.52-2.248-.237-12.578-2.456-15.567a1.463,1.463,0,0,0-2.252-.29l-6.5,5.714c-1.389,1.221.646,3.243,2.028,2.028l6.5-5.713-2.252-.29a33.356,33.356,0,0,1,3.028,4.835c.527,1.042,3.445,7.22-.26,6.143-2.548-.74-5.464-4.567-6.793-6.712C471.662,344.106,469.18,345.545,470.156,347.12Z" transform="translate(-469.915 -339.263)" fill="#0057ff"/></g><g transform="translate(34.454 129.619)"><path d="M418.551,539.03c-3.816-.391-7.643.512-11.316,1.623-2.61.791-5.316,1.774-7.093,3.842a5.344,5.344,0,0,0-1.373,4.515,5.236,5.236,0,0,0,3.981,3.629,12.311,12.311,0,0,0,5.616-.26Z" transform="translate(-397.278 -537.536)" fill="#0057ff"/><path d="M417.515,536.555a32.5,32.5,0,0,0-12.132,1.81c-2.992.943-6.244,2.256-8.011,5.019a6.068,6.068,0,0,0,0,7.047c1.966,2.583,5.256,3.061,8.284,2.669,1.944-.252,2.551-.562,3.607-1.945q1.684-2.2,3.366-4.411l6.128-8.031c1.119-1.467-1.37-2.9-2.477-1.448l-8.964,11.748c-.248.325-.812,1.43-1.206,1.581l-.087-.443-1.5.208a8.258,8.258,0,0,1-2.424-.145c-2.237-.565-3.607-2.647-2.536-4.819,1.427-2.9,5.174-3.882,8.027-4.7a28.34,28.34,0,0,1,9.929-1.275C419.357,539.556,419.348,536.687,417.515,536.555Z" transform="translate(-396.242 -536.495)" fill="#0057ff"/></g><g transform="translate(107.418)"><path d="M532.656,321.187c-.25,1.408.37,2.813.49,4.238a6.2,6.2,0,0,1-2.525,5.456,2.957,2.957,0,0,1-3.288.385,3.719,3.719,0,0,1-1.16-2.864,70.388,70.388,0,0,1,.751-15.435Z" transform="translate(-524.532 -311.578)" fill="#0057ff"/><path d="M530.122,320.155c-.115,1.715.62,3.331.5,5.022-.065.931-.586,2.641-1.511,3.159-3.022,1.694-2.712-2.4-2.743-3.485a72.2,72.2,0,0,1,.837-12.535l-2.621.342,5.733,8.221c1.048,1.5,3.535.071,2.477-1.448l-5.733-8.221c-.616-.883-2.424-1-2.621.343a82.3,82.3,0,0,0-.958,11.243c-.022,2.516-.51,7.022,2.026,8.674,2.215,1.444,5-.154,6.389-1.972,2.4-3.143.858-5.847,1.092-9.344C533.113,318.312,530.245,318.32,530.122,320.155Z" transform="translate(-523.431 -310.546)" fill="#0057ff"/></g><g transform="translate(0 82.534)"><path d="M338.593,484.478a51.049,51.049,0,0,0,11.843-5.343c5.09-3.028,8.516-7.028,9.406-9.839,1.205-3.8.7-8.359.823-12.346Z" transform="translate(-337.21 -455.497)" fill="#0057ff"/><path d="M337.947,484.781c6.536-2.01,13.295-5.211,18.16-10.1a15.427,15.427,0,0,0,4.34-6.972c.961-3.85.55-7.914.625-11.838.022-1.154-1.649-2.01-2.448-1.014l-22.072,27.528c-1.144,1.427.873,3.469,2.028,2.028l22.072-27.528L358.2,455.87c-.064,3.364.289,6.834-.328,10.161a13.17,13.17,0,0,1-4.426,7.231c-4.454,4.176-10.472,6.972-16.265,8.754C335.425,482.556,336.175,485.326,337.947,484.781Z" transform="translate(-336.182 -454.417)" fill="#0057ff"/></g><g transform="translate(102.967 41.393)"><path d="M528.224,386.651c.019-1.258-3.5-1.408-4.741-1.22a6.089,6.089,0,0,0-2.956,1.657,5.681,5.681,0,0,0-1.436,1.675,5.488,5.488,0,0,0-.439,2.286c-.087,3.02-.033,7.1,1.088,9.909C519.74,400.959,528.214,387.346,528.224,386.651Z" transform="translate(-516.93 -383.836)" fill="#0057ff"/><path d="M528.349,385.134c-1.145-4.175-7.957-2.112-10.094-.194-3.8,3.409-2.7,10.916-1.156,15.265a1.454,1.454,0,0,0,2.622.342q2.214-3.559,4.389-7.143c1.325-2.184,3.7-4.951,4.239-7.508.377-1.8-2.388-2.571-2.766-.762-.439,2.1-3.009,5.275-4.253,7.321q-2.026,3.333-4.087,6.645l2.622.342a24.12,24.12,0,0,1-1.046-9.14,4.6,4.6,0,0,1,3.2-4.387c.337-.113,3.413-.582,3.568-.018A1.435,1.435,0,0,0,528.349,385.134Z" transform="translate(-515.671 -382.701)" fill="#0057ff"/></g><g transform="translate(6.239 174.658)"><path d="M349.681,637.335c1.346-3.286,3.089-13.439,6.824-17.283,1.061-1.092,6.631-2.455,8.152-2.535l-4.857,5.776Z" transform="translate(-348.176 -616.077)" fill="#0057ff"/><path d="M349.945,636.646c1.505-3.89,2.178-8.055,3.741-11.936.776-1.928,1.721-4.36,3.731-5.248a20.576,20.576,0,0,1,6.122-1.582l-1.014-2.448c-5.431,6.459-10.266,13.261-15.2,20.109-1.081,1.5,1.406,2.933,2.477,1.447,5.064-7.027,9.559-13.352,14.752-19.528.714-.849.338-2.572-1.014-2.448-4.684.43-9.012,1.727-11.31,6.027-2.5,4.673-3.159,9.959-5.049,14.845C346.513,637.607,349.285,638.352,349.945,636.646Z" transform="translate(-347.058 -615.006)" fill="#0057ff"/></g></g></g><g transform="translate(3.869 194.88)"><g transform="translate(6.473 10.541)"><g transform="translate(15.364 61.097)"><path d="M190.6,675.329a6.484,6.484,0,0,1,.935-2.544,2.407,2.407,0,0,1,2.4-1.031,3.094,3.094,0,0,1,1.527,1.029c1.653,1.849,2.155,4.386,2.389,6.786.892,9.14,6.7,19.843-1.874,18.913C190.871,697.928,189.1,682.481,190.6,675.329Z" transform="translate(-188.564 -670.253)" fill="#0057ff"/><path d="M190.852,674.632c.329-1.422,1.7-2.549,2.869-1.307a5.994,5.994,0,0,1,1.07,2.39,25.6,25.6,0,0,1,.628,3.922,69.845,69.845,0,0,0,1.383,6.93c.535,2.269,3.307,10.406-1.6,9.422-3.09-.619-3.833-6.228-4.255-8.748a36.13,36.13,0,0,1-.093-12.609c.35-1.8-2.414-2.576-2.766-.762a37.982,37.982,0,0,0,1.248,18.883c1.348,3.9,5.658,8.867,10.037,4.985,1.788-1.585,1.636-4.254,1.343-6.4-.5-3.69-1.7-7.249-2.3-10.923-.59-3.593-.59-8.352-4.055-10.589-3.215-2.076-5.614,1.19-6.273,4.039C187.671,675.666,190.436,676.432,190.852,674.632Z" transform="translate(-187.435 -669.175)" fill="#0057ff"/></g><g transform="translate(59.627)"><path d="M270.4,569.1c.983-1.738,4.095-5.09,7.17-3.767,3.32,1.428,2.155,6.255,1.449,9.436a23.128,23.128,0,0,1-4.458,8.83c-.8,1.049-2.023,2.232-3.413,1.906-3.2-.75-3.947-4.456-4.1-6.6S270.4,569.1,270.4,569.1Z" transform="translate(-265.635 -563.677)" fill="#0057ff"/><path d="M270.594,568.817c1-1.6,3.859-4.71,5.962-2.792,1.317,1.2.723,3.95.449,5.426-.449,2.415-4.119,14.005-7.93,10.837-3.874-3.221-.037-10.06,1.52-13.47.761-1.667-1.71-3.126-2.477-1.448-1.5,3.3-3.76,7.341-3.5,11.046.342,4.946,5.216,10.51,9.652,5.507a23.463,23.463,0,0,0,5.091-9.779c.614-2.5,1.311-5.484.5-8.018-2.05-6.4-9.312-2.661-11.74,1.244C267.14,568.941,269.62,570.383,270.594,568.817Z" transform="translate(-264.593 -562.672)" fill="#0057ff"/></g><g transform="translate(45.886 38.547)"><path d="M245.239,640.964c-.071,3.122-1.73,6.083-1.982,9.2s.258,7.312,3.607,8.384c.991.317,3.084-.77,3.391-1.133,3.665-4.333,4.792-8.834,5.472-14.194a11.212,11.212,0,0,0-1.043-7.227c-1.3-2.187-4.533-4.711-6.875-3.347C245.394,634.049,245.326,637.127,245.239,640.964Z" transform="translate(-241.732 -630.886)" fill="#0057ff"/><path d="M242.713,639.944c-.388,5.479-4.955,13.612.852,18.011,5.364,4.063,9.642-4.282,10.978-8.306,2.006-6.042,3.371-14.724-2.933-18.709-2.258-1.428-5.017-1.594-6.93.509-2.02,2.22-1.9,5.709-1.967,8.5-.045,1.847,2.824,1.846,2.868,0,.046-1.917-.213-4.575.965-6.242,2.138-3.024,5.745,1.336,6.415,3.359,1.362,4.11-.24,10.113-2.014,13.927-.744,1.6-2.043,4.55-3.9,4.956-2.365.516-3.243-2.28-3.445-4.16-.438-4.083,1.7-7.822,1.981-11.841C245.711,638.1,242.842,638.11,242.713,639.944Z" transform="translate(-240.64 -629.866)" fill="#0057ff"/></g><g transform="translate(80.249 121.702)"><path d="M316.641,786.17c-2.061-1.678-3.179-4.09-5.14-5.857s-5.05-3.71-7.53-2.547c-.734.344-1.1,2-1.021,2.345.986,4.168,3.418,7.115,6.663,10.284a11.533,11.533,0,0,0,5.406,3.261c2.152.481,5.549.139,5.864-1.786C321.206,789.885,319.174,788.232,316.641,786.17Z" transform="translate(-301.563 -775.926)" fill="#0057ff"/><path d="M316.634,784.051c-3.671-3.279-7.159-10.514-13.3-9.032-5.732,1.382-1.17,9,.843,11.564,3.259,4.146,8.047,8.793,13.822,7.351,1.769-.441,3.244-1.551,3.313-3.5.1-2.812-2.753-4.818-4.672-6.387-1.418-1.159-3.459.859-2.028,2.028.923.755,3.37,2.228,3.624,3.507.462,2.333-3.223,1.755-4.3,1.453-3.331-.937-6.374-4.47-8.278-7.241-.733-1.067-2.136-2.984-2.106-4.3.028-1.218.11-1.629,1.567-1.663a5.118,5.118,0,0,1,2.622,1.061c2.891,1.819,4.375,4.952,6.872,7.183C315.978,787.306,318.014,785.283,316.634,784.051Z" transform="translate(-300.541 -774.821)" fill="#0057ff"/></g><g transform="translate(44.877 147.947)"><path d="M242.045,838.489c.589-2.808-.457-5.762-.052-8.6s1.807-6.5,5.409-6.846c1.066-.1,2.946,1.253,3.178,1.634,2.778,4.549,2.961,8.785,2.512,13.707a9.624,9.624,0,0,1-2.58,6.279c-1.77,1.72-5.565,3.389-7.638,1.739C240.739,844.707,241.322,841.939,242.045,838.489Z" transform="translate(-239.949 -821.623)" fill="#0057ff"/><path d="M242.36,837.817c.55-3.7-.815-7.561.568-11.133.668-1.725,2.194-3.809,4.308-2.973,1.855.734,2.559,3.531,2.993,5.224.921,3.592,1.205,9.317-.9,12.564-1.038,1.6-3.5,3.383-5.516,3.1-3.234-.461-1.851-4.851-1.45-6.777.374-1.8-2.39-2.571-2.766-.762-.55,2.646-1.4,5.839.26,8.262,1.541,2.248,4.226,2.5,6.654,1.687,6.691-2.233,7.633-9.628,7.013-15.762-.441-4.36-2.973-12.525-8.981-10.291a7.841,7.841,0,0,0-4.379,4.972c-1.327,3.715-.007,7.366-.568,11.133C239.326,838.86,242.089,839.639,242.36,837.817Z" transform="translate(-238.881 -820.57)" fill="#0057ff"/></g><g transform="translate(52.385 84.992)"><path d="M272.294,713.318a3.7,3.7,0,0,1,3.109,1.225,4.783,4.783,0,0,1,1.035,2.957,8.241,8.241,0,0,1-2.764,6.345,15.309,15.309,0,0,1-3.6,2.31,37.021,37.021,0,0,1-7.627,2.694c-6.568,1.588-8.737-2.857-8.083-4.719,1.125-3.2,7.864-5.279,11.351-6.66C267.417,716.8,270.188,713.526,272.294,713.318Z" transform="translate(-252.943 -711.883)" fill="#0057ff"/><path d="M271.319,713.7c5.655.153,1.475,7.413-.682,8.89a25.4,25.4,0,0,1-6.6,3c-1.867.6-9.608,2.688-9.319-1.75.184-2.812,6.555-4.58,8.645-5.37a14.247,14.247,0,0,0,3.55-1.718c1.516-1.1,2.891-2.708,4.786-3.1,1.806-.376,1.042-3.142-.762-2.766-2.852.594-4.561,3.214-7.124,4.364-2.759,1.239-5.7,1.992-8.283,3.624-3.623,2.286-5.258,6.564-1.134,9.409,2.363,1.63,5.291,1.427,7.953.774,3.609-.887,7.615-2.27,10.571-4.594,4.464-3.51,6.306-13.414-1.6-13.628C269.473,710.78,269.474,713.648,271.319,713.7Z" transform="translate(-251.969 -710.829)" fill="#0057ff"/></g><g transform="translate(22.112 119.158)"><path d="M218.065,776.094c-1.343,5.795-7.338,10.214-13.594,12.434a3.034,3.034,0,0,1-1.464.243c-1.259-.2-1.6-1.7-1.217-2.769a8.994,8.994,0,0,1,1.755-2.679,87.445,87.445,0,0,1,9.369-9.191C215.207,772.142,218.972,772.18,218.065,776.094Z" transform="translate(-200.24 -771.429)" fill="#0057ff"/><path d="M215.64,774.668a14.055,14.055,0,0,1-4.908,7.2,24.239,24.239,0,0,1-4.028,2.629c-.819.435-4.4,2.747-4.393.469,0-1.127,2.47-3.117,3.214-3.907,1.037-1.1,2.113-2.167,3.212-3.208.749-.71,7.564-7.174,6.9-3.179-.3,1.806,2.465,2.582,2.766.762.673-4.072-2.6-6.335-6.277-4.265-2.56,1.441-4.8,4.008-6.874,6.06-2,1.979-4.891,4.419-5.818,7.179a3.645,3.645,0,0,0,1.25,4.36c2.015,1.2,4.86-.5,6.682-1.4,5-2.449,9.548-6.406,11.036-11.938A1.436,1.436,0,0,0,215.64,774.668Z" transform="translate(-199.198 -770.385)" fill="#0057ff"/></g><g transform="translate(0 156.549)"><path d="M167.162,846.327c3.912,4.281,9.939,6.9,16.1,7.876a2.413,2.413,0,0,0,1.306-.045,1.58,1.58,0,0,0,.7-1.859c-.442-2.242-2.372-4.009-4.289-5.544a74.837,74.837,0,0,0-11.165-7.532C167.432,837.94,157.849,836.134,167.162,846.327Z" transform="translate(-161.726 -836.696)" fill="#0057ff"/><path d="M165.075,846.21a26.559,26.559,0,0,0,9.531,6.286c2.316.918,7.138,3.075,9.613,1.77,2.537-1.338,1.193-4.734-.06-6.446-2.4-3.281-6.433-5.8-9.78-8.008-2.985-1.972-7.649-5.326-11.6-3.9-5.154,1.852.474,8.257,2.3,10.3,1.232,1.38,3.254-.654,2.028-2.028-.6-.673-4.083-4.051-3.557-5.25.2-.453.535-.395,1.147-.409,2.708-.062,5.231,1.833,7.366,3.2a72.745,72.745,0,0,1,6.827,4.917,17.6,17.6,0,0,1,2.7,2.507c1.349,1.687.45,2.5-1.315,2.1a25.793,25.793,0,0,1-13.167-7.062C165.825,842.845,163.8,844.875,165.075,846.21Z" transform="translate(-160.653 -835.566)" fill="#0057ff"/></g></g><g transform="translate(105.64 75.327)"><path d="M342.52,678.081a10.112,10.112,0,0,0-4.814,5.029,18.608,18.608,0,0,0-1.417,6.555,14.575,14.575,0,0,0,.739,6.568A19.252,19.252,0,0,0,340,700.747c.907,1.132,4.149,5.558,5.056,6.69,0,0-.2-12.482-.52-16.756S342.52,678.081,342.52,678.081Z" transform="translate(-334.671 -676.661)" fill="#0057ff"/><path d="M340.645,675.788c-6.152,3.276-8.086,11.47-6.7,17.945.652,3.041,2.616,5.3,4.452,7.7,1.51,1.977,2.955,4,4.493,5.958.792,1.007,2.467.139,2.448-1.014-.16-10.087-.583-19.823-2.588-29.737-.365-1.808-3.131-1.043-2.766.762,1.953,9.658,2.33,19.151,2.486,28.975l2.448-1.014a89.958,89.958,0,0,1-6.988-9.331c-3.178-5.388-1.527-14.743,4.161-17.772C343.722,677.4,342.274,674.919,340.645,675.788Z" transform="translate(-333.519 -675.606)" fill="#0057ff"/></g><g transform="translate(0 119.042)"><path d="M151.87,775.619c3.88-2.072,6.844-5.219,9.512-8.442,1.9-2.291,3.744-4.8,3.939-7.626a5.181,5.181,0,0,0-1.938-4.593,6.942,6.942,0,0,0-6.354-.5,14.294,14.294,0,0,0-5.112,3.739Z" transform="translate(-150.436 -752.714)" fill="#0057ff"/><path d="M151.528,775.954a34.217,34.217,0,0,0,9.226-7.977c2.24-2.642,4.771-5.7,4.936-9.329.347-7.619-8.385-8.363-13.233-4.729-1.58,1.185-2.992,2.193-3.042,4.185-.048,1.881-.01,3.768-.015,5.65l-.03,10.961a1.435,1.435,0,0,0,2.868,0l.044-16.18a3.685,3.685,0,0,1,0-1.03c.055-.143.194-.2.1-.013-.181.384,2.294-1.674,1.876-1.373,2.788-2.008,8.54-2.75,8.56,2.165.014,3.451-3.122,6.627-5.285,9.028a29.567,29.567,0,0,1-7.46,6.166A1.435,1.435,0,0,0,151.528,775.954Z" transform="translate(-149.37 -751.81)" fill="#0057ff"/></g><g transform="translate(97.009 179.4)"><path d="M337.079,878.338s-.444-6.142-.438-8.123c.009-2.631-4.137-9.681-7.015-10.291a8.435,8.435,0,0,0-3.973-.061c-2.6.726-3.951,3.251-4.467,5.6-.737,3.36,1.428,9.713,3.784,15.109Z" transform="translate(-319.568 -858.144)" fill="#0057ff"/><path d="M337.42,877.218c-.227-3.156.1-6.738-.7-9.8-.917-3.477-3.727-8.394-7.231-9.8-4.9-1.969-9.5,1.214-10.686,5.994-1.341,5.408,1.763,11.745,3.838,16.568a1.453,1.453,0,0,0,1.619.659l12.109-2.236c1.813-.334,1.045-3.1-.762-2.766l-12.109,2.236,1.619.659c-1.665-3.871-4-8.826-3.73-13.16.345-5.481,5.989-7.385,9.4-3.183a13.442,13.442,0,0,1,3.354,7.827c.1,2.337.246,4.671.414,7C334.683,879.048,337.552,879.063,337.42,877.218Z" transform="translate(-318.474 -857.024)" fill="#0057ff"/></g><g transform="translate(13.847 27.315)"><path d="M175.993,611.205c.855,2.189,3.55,3.516,6.184,3.672a18.278,18.278,0,0,0,7.627-1.587,7.418,7.418,0,0,0,1.96-1.013c1.561-1.249,1.667-3.373,1.29-5.2-.991-4.788-4.424-8.88-7.9-12.677Z" transform="translate(-174.567 -592.975)" fill="#0057ff"/><path d="M173.7,610.867c1.382,2.813,4.388,4.2,7.422,4.382,3.293.2,8.48-.872,10.893-3.313,5.618-5.684-3.211-15.549-6.9-19.608a1.445,1.445,0,0,0-2.252.29l-9.162,16.8c-.884,1.621,1.591,3.07,2.477,1.447l9.162-16.8-2.252.29c2.966,3.263,8.577,8.923,7.591,13.876-.55,2.761-4.559,3.632-7,4.014-2.8.438-6.126-.033-7.5-2.827C175.358,607.762,172.883,609.214,173.7,610.867Z" transform="translate(-173.508 -591.912)" fill="#0057ff"/></g><g transform="translate(41.178)"><path d="M232.312,546.8c.661,2.827.548,8.682-.761,11.329a2.223,2.223,0,0,1-.728.918,2.362,2.362,0,0,1-2.077.082,5.7,5.7,0,0,1-2.939-3.5,31.166,31.166,0,0,1-2.144-8.52Z" transform="translate(-222.221 -545.365)" fill="#0057ff"/><path d="M229.858,546.115c.523,2.516.932,7.022-.308,9.365-1.576,2.977-3.324-.936-3.9-2.54a30.96,30.96,0,0,1-1.619-6.894l-1.434,1.434,8.649-.312c1.841-.066,1.849-2.935,0-2.868l-8.649.312c-.705.026-1.529.64-1.434,1.434.427,3.585,2.539,16.318,8.975,13.318,1.978-.922,2.412-3.639,2.677-5.572a24.963,24.963,0,0,0-.186-8.439C232.248,543.547,229.482,544.311,229.858,546.115Z" transform="translate(-221.15 -544.298)" fill="#0057ff"/></g><g transform="translate(100.305 20.78)"><path d="M327.414,582.921s-1.332,14.772-.07,20.885a4.571,4.571,0,0,0,1.357,2.81c1.508,1.171,5.493-2.739,5.493-2.739Z" transform="translate(-325.32 -581.545)" fill="#0057ff"/><path d="M324.879,581.9a108.526,108.526,0,0,0-.459,17.845c.189,2.449.411,6.967,3.514,7.453,2.282.357,4.668-1.875,6.174-3.328a1.424,1.424,0,0,0,.369-1.4L327.7,581.517c-.566-1.748-3.336-1-2.766.763l6.78,20.955.369-1.4a15.4,15.4,0,0,1-1.893,1.583c-.361.251-1.069.9-1.54.849-.838-.086-.89-1.284-1.066-2.113a38.332,38.332,0,0,1-.441-8.222c.04-4.015.251-8.039.608-12.038C327.911,580.06,325.042,580.071,324.879,581.9Z" transform="translate(-324.219 -580.522)" fill="#0057ff"/></g><g transform="translate(18.998 198.305)"><path d="M194.623,899.677c1.256-.473,8.413-5.99,7.072-6.484-2.84-1.046-5.989-.515-8.962.05A18.009,18.009,0,0,0,185,897.324Z" transform="translate(-183.56 -891.095)" fill="#0057ff"/><path d="M194.274,899.8a23.094,23.094,0,0,0,5.236-3.832c1.029-.9,3.13-2.487,2.64-4.116-.761-2.53-5.959-1.844-7.858-1.6a21.327,21.327,0,0,0-11.375,4.947,1.443,1.443,0,0,0,.633,2.4l9.619,2.352c1.793.438,2.557-2.327.762-2.766l-9.619-2.352.633,2.4a17.341,17.341,0,0,1,8.093-3.9,18.725,18.725,0,0,1,4.659-.391q2.094,1.119,1.715-.962a2.734,2.734,0,0,1-.443.555c-2.216,1.221-3.726,3.7-6.143,4.795C191.147,898.084,192.6,900.556,194.274,899.8Z" transform="translate(-182.487 -889.979)" fill="#0057ff"/></g><g transform="translate(62.334 201.762)"><path d="M272.336,901.652a22.4,22.4,0,0,0-3.959-2.738,3.612,3.612,0,0,0-3.207-.127,5.341,5.341,0,0,0-1.228.995l-3.484,3.448Z" transform="translate(-259.065 -897.054)" fill="#0057ff"/><path d="M272.315,899.588c-1.658-1.488-3.946-3.343-6.249-3.562-3.305-.315-5.573,3.078-7.657,5.141-.8.792-.272,2.619,1.014,2.448l11.878-1.578c1.8-.24,1.827-3.111,0-2.868l-11.878,1.578,1.014,2.448c1.39-1.375,3.784-4.759,5.9-4.2a11.486,11.486,0,0,1,3.948,2.62C271.657,902.847,273.692,900.824,272.315,899.588Z" transform="translate(-258.029 -896.005)" fill="#0057ff"/></g></g><path d="M387.519,265.267c.973-2.969,1.038-6.6-1.945-8.459a5.491,5.491,0,0,0-.921-.459,48.662,48.662,0,0,0,4.415-9.053c1.067-3.038,2.326-7.432,1.358-10.635a4.048,4.048,0,0,0-6.576-2.14c-3.069,2.322-5.643,5.946-8.12,8.875a193.614,193.614,0,0,0-12.471,16.536c-1.566-1.769-3.84-2.678-6.171-1.449-2.122,1.12-3.845,3.625-5.495,5.328q-3.235,3.34-6.459,6.687-10.742,11.15-21.364,22.414c-11.806,12.539-23.473,25.213-34.845,38.148q-25.929,29.5-49.287,61.067-2.25,3.03-4.48,6.075c-3.877-1.183-8.316-1.121-12.194-1.266-.939-.036-1.879-.056-2.82-.084-2.9-5.975-2.51-12.883-3.622-19.365a48.927,48.927,0,0,0,11.019-1.4c4.023-1.055,5.769-4.566,7.109-8.228,3.79-10.353,4.573-22.1,5.488-33q.25-2.977.451-5.958c.251-3.684-5.487-3.668-5.737,0a218.667,218.667,0,0,1-3.483,29.03c-.8,3.9-1.6,8.28-3.837,11.651-.679,1.023-.786.832-2.334,1.164a49.547,49.547,0,0,1-8.244.93,140.628,140.628,0,0,1-38.075-3.987c-2.466-.583-4.918-1.235-7.331-2.009-.586-.188-1.171-.38-1.751-.587-.107-.038-.2-.071-.278-.1-.014-.011-.025-.021-.045-.036a7.956,7.956,0,0,1-.663-.72,36.953,36.953,0,0,1-3.473-7.628c-3.391-9.959-5.258-20.525-6.515-30.945a207.63,207.63,0,0,1-1.571-23.942A264.766,264.766,0,0,0,186.133,290.6q2.145-.954,4.278-1.928.993-.453,1.969-.927c.281-.137.556-.279.834-.418.364-.182.731-.361,1.092-.548.386-.2.766-.407,1.148-.612.245-.131.492-.259.735-.393.443-.244.881-.5,1.318-.747.176-.1.353-.2.527-.3.485-.284.964-.576,1.441-.87.12-.074.242-.145.362-.22.511-.318,1.015-.645,1.517-.974.082-.054.166-.106.248-.161q.794-.526,1.572-1.075l.152-.1q.814-.575,1.61-1.172l.075-.055q.824-.619,1.63-1.264l.015-.013a65.017,65.017,0,0,0,10.433-10.481,57.613,57.613,0,0,0,17.993,13c.221,4.762.159,9.471.393,13.586.209,3.669,5.947,3.694,5.737,0-.707-12.412.677-27.93-7.364-38.4-1.781-6.685-6.424-14.564-11.064-17.967a25.4,25.4,0,0,0-8.844-3.66c-10.3-2.655-16.94-.487-27.575-.336-2.045.029-4.1.116-6.145.313a20.2,20.2,0,1,0-20.963,9.616,36.576,36.576,0,0,0-6.414,9.2c-3.517,7.165-4.823,15.268-4.72,23.248.06,4.629,1.06,9.843,3.7,13.4a182.563,182.563,0,0,0,.3,25.5,192.809,192.809,0,0,0,6.18,37.416c1.724,6.155,3.743,15.26,10.542,17.579a120.464,120.464,0,0,0,22.327,5.14,99.328,99.328,0,0,0-1.755,21.088c-3.038.141-6.072.34-9.094.64-3.064.305-10.693.328-11.18,4.632-.321,2.832,2.6,4.054,4.743,4.947,1.071.445,2.166.837,3.228,1.3.324.141.64.293.956.447-.113.166-.214.319-.289.418q-.9,1.176-1.763,2.374-1.856,2.57-3.562,5.243c-2.254,3.523-4.319,7.166-6.214,10.894-7.97,15.677-13.066,32.721-16.351,49.955-7.045,36.951-6.664,75.373-1.815,112.576q.832,6.384,1.848,12.742a2.792,2.792,0,0,0,2,2c6.066,1.392,12.192,2.569,18.328,3.607,9,1.522,18.259,3,27.413,2.582,16.619-.767,33.268-3.806,49.664-6.471,4.87-.792,9.738-1.6,14.6-2.454A2.314,2.314,0,0,0,264,600.243a3.256,3.256,0,0,0,.038-.524c-.427-34.954,2.815-69.844,1.437-104.809-.4-10.241-1.147-20.527-2.523-30.714,24.925-30.29,47.622-62.475,69.618-94.928q21.266-31.378,42.3-62.913c2.462-3.669,5.009-7.3,7.391-11.017,2.012-3.145,1.361-5.645-.084-8.13,2.842-2.928,6.187-5.593,7.146-9.748a11.417,11.417,0,0,0-2.545-10.18C387.044,266.62,387.294,265.951,387.519,265.267ZM174.231,401.233c-.108-.048-.145-.084.009-.089ZM374.195,275.5q-.975-1.419-1.95-2.838a59.32,59.32,0,0,0,8.576-10.339c.544-.339,1.23-.721,1.463-.6.326.173-.119,1.443-.3,2.015a24.341,24.341,0,0,1-2.224,4.906A27.856,27.856,0,0,1,374.195,275.5Zm2.436-24.212q2.488-3.117,5.116-6.117,1.389-1.586,2.817-3.138c-.032.167-.057.336-.094.5a27.252,27.252,0,0,1-1.442,4.589,55.406,55.406,0,0,1-4.842,8.736q-.809,1.257-1.643,2.5a2.55,2.55,0,0,0-.454.669,58.346,58.346,0,0,1-7.166,8.841q-1.039-1.493-2.089-2.978C369.915,260.229,373.142,255.659,376.631,251.29ZM196.88,376.641c4.193.422,8.381.68,12.508.8q.651.02,1.308.035c1.41,6.448,1.152,13.055,3.241,19.24q-6.528-.085-13.055.013-2.865.042-5.734.114A91.587,91.587,0,0,1,196.88,376.641Zm-17.572,33.031c.307-.013.141.015,0,0ZM258.3,588.94q-.048,4.189-.017,8.378-17.03,2.961-34.147,5.414c-7.868,1.121-15.767,2.2-23.7,2.774-8.617.622-17.181-.372-25.688-1.722q-9.821-1.557-19.55-3.711c-5.469-34.952-6.784-71.055-2.123-106.165,2.3-17.339,6.212-34.6,12.641-50.9a135.2,135.2,0,0,1,10.887-21.79,111.129,111.129,0,0,1,6.583-9.472c1.85-2.384,2.016-4.81-.6-6.725a14.581,14.581,0,0,0-3.012-1.625c3.65-.451,7.415-.492,10.993-.643l1.292-.053a3.289,3.289,0,0,0,1.466-.06c12.254-.491,24.807-.768,36.985.446,7.011.7,9.007,5.708,12.153,11.516a113.623,113.623,0,0,1,8.727,21.418c4.885,16.227,7.046,33.162,8.092,50.034C261.416,520.353,258.7,554.637,258.3,588.94Zm117.324-293.99-3.569,5.32q-20.9,31.147-41.844,62.26C310.1,392.312,289.4,421.8,267.089,449.988q-2.626,3.316-5.3,6.6c-.812-4.8-1.778-9.577-2.942-14.305a139.4,139.4,0,0,0-7.935-23.469,99.774,99.774,0,0,0-5.242-10.2,37.248,37.248,0,0,0-4.811-7.088c-.2-.21-.419-.4-.634-.589,14.141-19.225,28.813-38.024,44.349-56.148,22.723-26.509,46.789-51.852,71.072-76.927.829-.856,2.2-1.788,2.739-2.826.268-.512.721-.794.758-1.13.054.093.106.181.154.251l3.273,4.71,2.491,3.586a3.018,3.018,0,0,0,1.6,2.3l5.277,7.595,3.887,5.6a13.412,13.412,0,0,1,1.849,2.662C378.165,292.032,376.371,293.837,375.625,294.949Zm3.282-12.608q-.739-1.07-1.478-2.142a35.5,35.5,0,0,0,6.279-7.105C384.742,276.332,381.577,279.612,378.907,282.341Z" transform="translate(-142.626 -204.416)"/><g transform="translate(0.181 30.67)"><path d="M245.522,362.167a3.229,3.229,0,0,0-.338-.26,3.1,3.1,0,0,0-.361-.229,19.522,19.522,0,0,0-23.713,2.092,18.82,18.82,0,0,0-4.986,7.767,15.07,15.07,0,0,0-7.588.957,19.638,19.638,0,0,0-32.581-3.337,19.94,19.94,0,0,0-4.337,10.156c-8.974,1.229-18.607-1.44-27.172,2.238-3.382,1.453-.464,6.4,2.9,4.954,4.062-1.744,9.447-1.244,13.75-1.253,3.51-.008,7.1.116,10.612-.233a19.246,19.246,0,0,0,2.526,6.933,20.028,20.028,0,0,0,20.832,9.19c9.142-1.736,15.48-9.891,15.87-18.976a3.243,3.243,0,0,0,.018-.407,3.2,3.2,0,0,0-.029-.495,21.143,21.143,0,0,0-.437-3.4,9.5,9.5,0,0,1,4.61-.644,19.16,19.16,0,0,0,1.472,8.088c6.423,15.2,28.637,15.465,35.342.346C255.677,377.146,252.71,367.706,245.522,362.167ZM191.174,395.8a14.036,14.036,0,1,1,14.036-14.036A14.159,14.159,0,0,1,191.174,395.8Zm54.163-10.1a13.559,13.559,0,0,1-23.3-13.655c3.677-7.789,13.3-9.8,20.25-5.185A13.713,13.713,0,0,1,245.337,385.7Z" transform="translate(-142.942 -300.829)" fill="#0057ff"/><g transform="translate(46.41 76.987)"><circle cx="2.795" cy="2.795" r="2.795" transform="translate(0 3.943)"/><circle cx="2.795" cy="2.795" r="2.795" transform="translate(42.914)"/></g><path d="M191.709,257.88a35.2,35.2,0,0,0-8.806,2.24,30,30,0,0,0-9.073,5.914,18.721,18.721,0,0,0,17.878-8.154Z" transform="translate(-156.111 -257.88)" fill="#0057ff"/><g transform="translate(54.082 90.173)"><path d="M237.551,458.64a16.161,16.161,0,0,0,13.621,9.436c3.678.318,3.657-5.421,0-5.737a10.546,10.546,0,0,1-8.668-6.594c-.622-1.432-2.693-1.73-3.924-1.029a2.939,2.939,0,0,0-1.029,3.924Z" transform="translate(-237.216 -431.816)"/><g transform="translate(13.518)"><path d="M270.592,418.49c-.008-.024-.016-.045-.024-.065.006.02.011.041.017.062Z" transform="translate(-264.953 -416.499)"/><path d="M271.958,421.833a5.114,5.114,0,0,0-2.474-3.363c-.6-.338-1.26-.567-1.883-.855a6.109,6.109,0,0,0-1.019-.5.894.894,0,0,1-.162-.054,2.587,2.587,0,0,1,.1.778,3.1,3.1,0,0,0-.106-.782c-.355-.161-.166-.422-.017-.062-.826-2.82-5.64-2.546-5.614.844.023,3.027,2.791,4.176,5.134,5.265a3.634,3.634,0,0,1,.523.327,3,3,0,0,1,.027.377c-.166,1.058-.141,1.88-1.178,2.474-3.2,1.835-.317,6.793,2.9,4.954A8.528,8.528,0,0,0,271.958,421.833Z" transform="translate(-260.781 -415.068)"/></g></g></g></g><g transform="translate(372.723 122.118)"><g transform="translate(111.422)"><path d="M815.644,128.273c-3.321-6.64-11.1-5.879-17.432-5.971-15.838-.231-31.679.251-47.515-.182-3.693-.1-3.69,5.635,0,5.737,12.759.349,25.525.108,38.286.119,3.076,0,6.153.018,9.229.063,3.008.044,7.069-.525,9.907.6,4.658,1.847,3.354,9.379,3.307,13.308-.139,11.528-.047,23.072-.928,34.576a119.07,119.07,0,0,1-2.3,16.694c-.124.561-.41,1.319-.563,1.9-.266.016-.531.033-.8.045-15.051.688-30.207-.014-45.268-.011-3.83,0-7.661.017-11.491.081-1.61.028-3.22.063-4.829.118-.064,0-.154,0-.254-.007-.115-.4-.213-.808-.3-1.217a26.668,26.668,0,0,1-.416-2.973c-.315-3.3-.39-6.627-.413-9.942a424.288,424.288,0,0,1,3.447-54.975c.454-3.655-5.287-3.622-5.737,0a433.441,433.441,0,0,0-3.451,53.756c0,3.647.063,7.308.4,10.942.227,2.46.406,5.209,1.514,7.467,1.12,2.284,2.794,2.767,5.211,2.686,3.872-.131,7.748-.168,11.622-.188,16.628-.084,33.351.759,49.966,0,1.642-.075,3.945.061,5.2-1.2,1.423-1.428,1.568-4.313,1.956-6.2.617-3.005,1.07-6.041,1.453-9.085,1.587-12.621,1.565-25.39,1.671-38.088C817.168,140.584,818.307,133.6,815.644,128.273Zm-70.479,67.563c.006-.092.024.019,0,0Zm.008.194c.019.052.01.06,0,0Zm63.634-1.014c-.112-.01-.162-.031,0,0Z" transform="translate(-738.127 -122.118)" fill="#0057ff"/><g transform="translate(13.357 27.7)"><path d="M761.41,197.153v-3.6l2.849-.316,8.547-22.832h6.846l8.428,22.832,2.849.316v3.6h-12.9v-3.6l4-.316-1.582-4.036h-8.666l-1.583,4.036,4.115.316v3.6Zm17.608-12.622c-1.979-5.777-2.413-7.281-2.809-8.9-.515,1.583-1.029,3.284-3.007,8.9Z" transform="translate(-761.41 -170.404)"/><path d="M834.929,201.274a37.032,37.032,0,0,1-7.834.91l-.317-2.493a7.766,7.766,0,0,1-5.817,2.532c-4.432,0-6.371-3.086-6.371-6.212a5,5,0,0,1,3.8-5.144,29.969,29.969,0,0,1,8.112-1.108v-.792a4.829,4.829,0,0,0-.4-2.413c-.4-.554-1.108-.752-2.453-.752a29.811,29.811,0,0,0-6.766.91l-.713-3.68a32.536,32.536,0,0,1,9.18-1.662c2.532,0,4.392.594,5.263,2.018.633,1.069.949,2.651.949,5.5v9.062h3.363Zm-8.389-8.23a22.942,22.942,0,0,0-5.025.712,2.327,2.327,0,0,0-1.583,2.216c0,1.543.989,2.334,2.572,2.334a5.96,5.96,0,0,0,4.036-1.583Z" transform="translate(-784.083 -175.08)"/></g></g><g transform="translate(0 169.143)"><path d="M613.784,420.082c-20.278-.955-40.545-2.134-60.823-3.1-3.844-.182-7.132.776-8.411,4.863-1.218,3.9-.388,8.5-.221,12.5.387,9.309.735,12.882,1.091,22.192.344,9.009.589,18.033,1.091,27.035.2,3.614,1.316,7.707,5.2,8.932,4.718,1.486,10.323,1.672,15.227,2.022,10.856.775,21.745.367,32.617.55,5.377.09,10.738.356,16.088.9,4.18.426,7.777-.819,8.914-5.247.612-2.382.395-4.989.37-7.417q-.047-4.712-.168-9.424c-.147-6.128-.351-12.255-.513-18.383a285.725,285.725,0,0,1,.3-30.668c.236-3.686-5.5-3.673-5.737,0-1.215,18.991-.147,32.273.26,51.272q.071,3.324.111,6.648c.021,1.853.679,5.18-.288,6.841-.881,1.514-3.969.555-5.474.418-2.4-.219-4.806-.373-7.214-.483-9.589-.437-19.191-.132-28.785-.307-4.788-.088-9.577-.292-14.344-.766-2.325-.232-4.642-.531-6.945-.922-2.129-.361-3.436-.307-3.793-2.692-.556-3.727-.377-7.709-.531-11.476q-.252-6.209-.489-12.418c-.32-8.308-.63-10.88-.959-19.188q-.235-5.926-.489-11.852a34.847,34.847,0,0,1-.1-4.984c.064-.63.151-1.817.72-2.227.544-.392,2.331.008,3.026.041,20.091.957,40.173,2.124,60.265,3.07,3.69.174,3.682-5.563,0-5.737Z" transform="translate(-543.898 -416.964)" fill="#0057ff"/><g transform="translate(18.536 31.588)"><path d="M620.27,475.9a3.248,3.248,0,0,0-2.444-2.977,1.779,1.779,0,0,0-.584-.172,45.838,45.838,0,0,0-6.555-.555,112.5,112.5,0,0,0-11.309-.05c-4.662.179-9.323.48-13.991.413-3.148-.045-7.068-1.174-8.647,2.393a10.533,10.533,0,0,0-.4,5.18,17.778,17.778,0,0,0,1.175,5.8c1.331,2.779,6.457,1.884,8.915,1.878q7.325-.02,14.651-.045a87.72,87.72,0,0,0,13-.62c1.459-.224,3.27-.278,4.208-1.585a11.358,11.358,0,0,0,1.482-4.415A19.357,19.357,0,0,0,620.27,475.9Z" transform="translate(-576.21 -472.028)"/><path d="M592.344,486.466l22.583.128a1.112,1.112,0,0,0,0-2.222l-22.583-.128a1.112,1.112,0,0,0,0,2.222Z" transform="translate(-582.631 -477.236)" fill="#fff"/></g></g><g transform="translate(47.041 262.231)"><g transform="translate(14.454 19.183)"><path d="M701.628,612.749c-3.848-.285-7.971.311-11.827.467q-12.154.49-24.307,1-4.445.183-8.891.364c-2.283.091-4.779-.056-5.395,2.689,0,.014,0,.028-.005.042a1.612,1.612,0,0,0-.046.34c-.283,10.581.485,21.213.859,31.786.073,2.043-.1,4.149,2.357,4.66,2.277.474,5.036.052,7.365.075q3.839.036,7.676.138c10.306.278,20.587,1,30.858,1.866a1.457,1.457,0,0,0,1.434-1.434q1.077-16.845,2.155-33.69C704.037,618.308,705.661,613.046,701.628,612.749Zm-.455,5.491q-.233,3.649-.467,7.3l-1.769,27.654c-9-.748-18.015-1.383-27.045-1.681q-7.232-.238-14.469-.234c-1.707,0-2.32.331-2.52-1.475-.064-.584-.055-1.186-.08-1.773-.431-9.995-1.052-20.081-.8-30.087.49-.918,5.125-.6,5.959-.635q4.411-.18,8.822-.363,10.5-.433,21-.86,4.866-.2,9.732-.387a8.808,8.808,0,0,1,1.986-.122C701.1,615.565,701.207,617.722,701.174,618.239Z" transform="translate(-651.096 -612.673)"/><path d="M696.1,650.478q-6.036-3.521-11.739-7.533,3.95-3.165,7.86-6.379c1.426-1.175-.614-3.194-2.028-2.028q-4.092,3.373-8.235,6.682-5.008-3.655-9.743-7.684c-1.4-1.193-3.435.827-2.028,2.028q4.6,3.927,9.457,7.505-4.8,3.808-9.658,7.536c-1.446,1.108-.018,3.6,1.447,2.477q5.338-4.09,10.6-8.273,6.116,4.35,12.618,8.145A1.435,1.435,0,0,0,696.1,650.478Z" transform="translate(-658.894 -621.412)"/></g><path d="M706.286,585.389c-3.321-6.64-11.1-5.879-17.432-5.972-15.838-.23-34.548.251-50.383-.182-3.693-.1-3.69,5.636,0,5.737,12.759.349,28.393.109,41.155.12q4.614,0,9.229.063c3.007.044,7.069-.525,9.907.6,4.658,1.848,3.354,9.38,3.307,13.308-.139,11.528-.047,23.072-.928,34.575a119.064,119.064,0,0,1-2.3,16.694c-.125.561-.41,1.319-.563,1.9-.266.016-.531.033-.8.045-15.051.688-33.075-.014-48.137-.01-3.83,0-7.661.016-11.49.081-1.61.028-3.22.063-4.829.117-.064,0-.154,0-.254-.007-.115-.4-.213-.807-.3-1.217a26.674,26.674,0,0,1-.416-2.974c-.315-3.3-.39-6.627-.413-9.941a424.308,424.308,0,0,1,3.447-54.975c.454-3.654-5.287-3.622-5.737,0a433.446,433.446,0,0,0-3.451,53.756c0,3.647.063,7.308.4,10.941.227,2.46.406,5.209,1.515,7.468,1.12,2.284,2.794,2.767,5.211,2.685,3.872-.131,7.748-.167,11.622-.187,16.628-.084,36.219.759,52.834,0,1.642-.075,3.945.062,5.2-1.2,1.423-1.428,1.568-4.312,1.956-6.2.617-3.005,1.07-6.041,1.453-9.084,1.587-12.621,1.565-25.39,1.671-38.088C707.809,597.7,708.949,590.712,706.286,585.389Zm-73.347,67.562c.006-.091.024.019,0,0Zm.007.194c.02.052.01.06,0,0Zm66.5-1.014c-.112-.01-.162-.031,0,0Z" transform="translate(-625.9 -579.234)" fill="#0057ff"/></g><g transform="translate(88.007 169.139)"><g transform="translate(18.834 24.652)"><path d="M770.96,463.517a3.008,3.008,0,0,0-2.264-2.758,1.088,1.088,0,0,0-.266-.1,1.077,1.077,0,0,0-.276-.056,42.421,42.421,0,0,0-6.072-.514,104.283,104.283,0,0,0-10.477-.047c-4.319.166-8.638.445-12.963.383-2.917-.042-6.548-1.088-8.011,2.217a9.759,9.759,0,0,0-.369,4.8,16.484,16.484,0,0,0,1.089,5.37c1.233,2.575,5.982,1.746,8.259,1.739q6.788-.017,13.574-.042a81.238,81.238,0,0,0,12.046-.574c1.352-.208,3.029-.258,3.9-1.469a10.528,10.528,0,0,0,1.373-4.09A17.931,17.931,0,0,0,770.96,463.517Z" transform="translate(-730.141 -459.93)"/><path d="M745.088,473.306l20.922.118a1.03,1.03,0,0,0,0-2.058l-20.922-.118a1.03,1.03,0,0,0,0,2.058Z" transform="translate(-736.089 -464.755)" fill="#fff"/><g transform="translate(0 18.493)"><path d="M770.96,495.754A3.008,3.008,0,0,0,768.7,493a1.67,1.67,0,0,0-.542-.159,42.333,42.333,0,0,0-6.072-.513,104.1,104.1,0,0,0-10.477-.047c-4.319.166-8.638.445-12.963.383-2.917-.041-6.548-1.088-8.011,2.217a9.761,9.761,0,0,0-.369,4.8,16.487,16.487,0,0,0,1.089,5.37c1.233,2.575,5.982,1.745,8.259,1.739q6.788-.018,13.574-.042a81.16,81.16,0,0,0,12.046-.574c1.352-.207,3.029-.257,3.9-1.469a10.524,10.524,0,0,0,1.373-4.09A17.928,17.928,0,0,0,770.96,495.754Z" transform="translate(-730.141 -492.167)"/><path d="M753.155,505.543l12.026.118c.762.007.762-2.051,0-2.058l-12.026-.119c-.761-.007-.762,2.051,0,2.059Z" transform="translate(-739.709 -496.992)" fill="#fff"/></g></g><path d="M779.961,424.748c-1.515-3.961-5.523-4.756-9.323-4.793-10.081-.1-20.159.123-30.24-.123A292.843,292.843,0,0,1,704.9,417a2.952,2.952,0,0,0-3.529,2c-3.042,10.493-3.7,19.442-3.969,30.307A274.411,274.411,0,0,0,698.46,481.9a91.419,91.419,0,0,0,1.326,9.99c.505,2.431,1.328,4.229,3.851,5.072,2.922.976,6.311.927,9.359.979,5.232.089,10.471-.131,15.694-.392,13.228-.663,26.425-1.794,39.634-2.725a2.876,2.876,0,0,0,2.682-2.377,3.214,3.214,0,0,0,4.569-2.417c2.306-18.333,3.592-34.5,4.6-52.948C780.39,433.223,781.378,428.451,779.961,424.748Zm-74.689,66.736h0C704.732,491.373,705.312,491.376,705.271,491.484Zm.56.862a.852.852,0,0,0-.071-.416A.434.434,0,0,1,705.831,492.346Zm68.61-55.26c-.476,8.692-1.039,15.086-1.719,23.764-.747,9.548-1.631,19.087-2.813,28.591a2.615,2.615,0,0,0-1.584-.351c-11.189.788-22.369,1.715-33.567,2.388-8.95.538-18.389,1.54-27.334.431a11.528,11.528,0,0,1-1.249-.205c-.18-.041-.361-.093-.543-.139-.064-.172-.122-.327-.142-.407a58.842,58.842,0,0,1-1.217-8.459,271.732,271.732,0,0,1-1.2-29.973c.127-10.662.547-19.386,3.178-29.789,17.979,2.422,36.05,2.833,54.183,2.786q3.477-.009,6.956-.023c1.833-.006,4.341-.431,6.1.231C776.192,426.95,774.569,434.768,774.442,437.085Z" transform="translate(-697.31 -416.957)" fill="#0057ff"/></g><g transform="translate(139.231 261.363)"><g transform="translate(17.042 11.915)"><path d="M855.719,599.917a1.458,1.458,0,0,0-1.816-1.383c-10.606,2.455-21.575,1.943-32.376,1.807a1.287,1.287,0,0,0-1.314.953,1.508,1.508,0,0,0-.12.481q-1.517,20.187-2.978,40.38c-.271,3.772-.761,7.605-.8,11.387-.067,6.127,7.286,3.524,11.277,3.343a113.217,113.217,0,0,1,21.179,1.216c6.111.868,5.5-5.247,5.922-9.684C856.227,632.3,857.072,616.082,855.719,599.917Zm-3.031,38.359q-.335,4.511-.761,9.015-.21,2.251-.437,4.5a10.094,10.094,0,0,1-.229,2.248c-.924,1.981-2.237,1.2-3.869.967a106.99,106.99,0,0,0-17.64-1.065c-2.882.069-5.761.517-8.633.573-1.513.03-1.991.106-1.9-1.473.049-.9.123-1.8.186-2.693q.382-5.482.781-10.963.853-11.789,1.731-23.576.467-6.291.939-12.582c10.062.146,20.222.447,30.121-1.565A247.636,247.636,0,0,1,852.688,638.275Z" transform="translate(-816.311 -598.49)"/><path d="M854.08,611.331a1.442,1.442,0,0,0-1.434-1.434c-7.089.444-14.178.88-21.263,1.382a1.507,1.507,0,0,0-.793,2.689,1.461,1.461,0,0,0-.865,1.207l-2.071,19.513c-.086.808.729,1.385,1.434,1.434a119.079,119.079,0,0,0,19.158-.171c1.777-.164,3.872-.138,4.707-2.034.581-1.318.329-3.107.365-4.523C853.471,623.37,853.773,617.348,854.08,611.331Zm-3.526,14.779c-.049,1.356-.1,2.711-.123,4.066a6.194,6.194,0,0,1-.023,1.744c-.654,1.552-3.588,1.293-4.893,1.382a118.442,118.442,0,0,1-14.85.048l1.929-18.175a1.153,1.153,0,0,0-.409-1.082c6.315-.443,12.635-.838,18.953-1.233C850.917,617.275,850.712,621.692,850.554,626.11Z" transform="translate(-821.144 -603.352)"/><path d="M839.006,627.43c1.575.944,3.087,1.877,4.489,2.907a52.62,52.62,0,0,0-3.672,4.455c-1.093,1.49,1.4,2.922,2.477,1.447a46.036,46.036,0,0,1,3.4-4.091,17.719,17.719,0,0,1,3.69,4.739c.867,1.63,3.344.183,2.477-1.448a20.017,20.017,0,0,0-4.16-5.339c1.228-1.183,2.509-2.3,3.817-3.348,1.443-1.151-.6-3.168-2.028-2.028a52.791,52.791,0,0,0-4,3.539,57.266,57.266,0,0,0-5.044-3.31A1.435,1.435,0,0,0,839.006,627.43Z" transform="translate(-825.694 -609.531)"/><path d="M844.452,664.412c2.133.355,3.046-2.409.9-2.766a51.619,51.619,0,0,0-11.22-.658c-2.17.113-2.185,2.982,0,2.868A47.374,47.374,0,0,1,844.452,664.412Z" transform="translate(-823.214 -625.106)"/><path d="M832.82,672.485h6.069a1.435,1.435,0,0,0,0-2.868H832.82A1.435,1.435,0,0,0,832.82,672.485Z" transform="translate(-822.759 -628.814)"/><g transform="translate(7.74 45.988)"><path d="M850.042,680.169c-.072-.648-.461-.946-1.123-1.165a.938.938,0,0,0-.268-.067,24.583,24.583,0,0,0-3.011-.217c-1.731-.092-3.462-.076-5.2-.02-2.141.07-4.283.188-6.427.162-1.446-.018-3.247-.459-3.972.936a3.536,3.536,0,0,0-.184,2.025,6.073,6.073,0,0,0,.54,2.267c.612,1.086,2.966.737,4.095.734l6.73-.018a47.371,47.371,0,0,0,5.973-.242c.67-.088,1.5-.109,1.933-.62a4.01,4.01,0,0,0,.681-1.726A6.47,6.47,0,0,0,850.042,680.169Z" transform="translate(-829.803 -678.655)"/><path d="M837.215,684.3l10.374.05a.438.438,0,1,0,0-.869l-10.374-.05a.438.438,0,1,0,0,.869Z" transform="translate(-832.753 -680.691)" fill="#fff"/></g></g><path d="M860.945,591.872c-.222-3.822.188-8.846-2.436-12-2.792-3.351-6.259-1.882-9.945-1.548-8.709.791-17.5,1.33-26.236,1.809-10.561.579-21.337.769-31.733-1.452a2.917,2.917,0,0,0-3.631,2.766c-1.284,18.155,1.27,36.29,1.589,54.433.076,4.344.012,8.686-.257,13.023-.235,3.787.157,7.464,4.137,9.048,3.7,1.473,8.473,1.077,12.4,1.276q7.436.378,14.884.453c11.056.106,22.106-.333,33.126-1.21,3.655-.291,3.687-6.03,0-5.737-11.385.906-22.8,1.344-34.223,1.2q-8.85-.113-17.687-.658c-1.48-.091-5.418.312-6.593-.714-1.286-1.123-.162-6.045-.107-7.6.7-20.054-2.629-40.049-1.72-60.094,15.782,2.678,32.012.884,47.862-.287,3.568-.263,7.252-.208,10.773-.848,1.983-.36,2.944-.938,3.513,1.244s.422,4.66.552,6.891q.882,15.208,1.319,30.437.494,17.2.419,34.412c-.014,3.692,5.722,3.7,5.737,0Q862.806,624.279,860.945,591.872Z" transform="translate(-786.604 -577.72)" fill="#0057ff"/></g><g transform="translate(21.353 0.26)"><path d="M662.154,190.071q-.047-4.712-.167-9.424c-.147-6.128-.351-7.666-.513-13.794-.322-12.135-.472-24.282.3-36.4.236-3.686-5.5-3.672-5.737,0-1.215,18.991-.147,33.421.26,52.42q.071,3.324.111,6.649c.02,1.854,1.492,7.682-5.763,7.259-2.406-.141-4.8.073-7.214.09-9.7.069-19.191.442-28.785.267-4.788-.088-9.577.282-14.344-.193-2.325-.232-4.642-.531-6.945-.922-2.129-.361-3.436-.308-3.793-2.692-.556-3.727-.377-7.709-.531-11.476-.168-4.139-.329-3.689-.489-7.829-.319-8.308-.629-18.337-.959-26.645q-.235-5.927-.489-11.853a34.828,34.828,0,0,1-.1-4.983c.064-.63.151-1.817.72-2.228.544-.392,2.331.009,3.025.042,20.091.957,40.173,2.124,60.265,3.07,3.691.174,3.682-5.563,0-5.737-20.278-.955-40.545-2.134-60.823-3.1-3.844-.182-7.132.776-8.41,4.863-1.219,3.9-.388,8.5-.221,12.5.387,9.308.735,20.34,1.091,29.65.344,9.009.59,13.443,1.091,22.445.2,3.614,1.316,7.707,5.2,8.931,4.717,1.487,10.323,1.672,15.227,2.022,10.857.775,21.746-.207,32.617-.025,5.377.091,10.738-.791,16.088-.245,4.18.427,7.777-.819,8.914-5.246C662.4,195.105,662.178,192.5,662.154,190.071Z" transform="translate(-581.12 -122.57)" fill="#0057ff"/><path d="M655.137,180.042a83.672,83.672,0,0,1-9.625-5.134c-.263-.158-.557-.363-.87-.582-1.1-.769-2.472-1.721-3.719-1.5a14.773,14.773,0,0,0-4.04,1.686c-.589.315-1.146.613-1.672.851-3.406,1.547-6.745,3.045-10.154,4.357a1.444,1.444,0,0,0-.8,1.9,1.171,1.171,0,0,0,1.579.707c.812-.313,1.691-.665,2.74-1.1q.026.989.049,1.977c.088,3.661.179,7.445.513,11.153.021.234.036.492.052.764a7.183,7.183,0,0,0,.8,3.544,2.9,2.9,0,0,0,2.334.994l.24.024a64.706,64.706,0,0,0,6.831.326c1.63,0,3.2-.044,4.657-.1.3-.011.655-.012,1.041-.013,2.3,0,5.779-.01,6.675-2.245a14.061,14.061,0,0,0,.537-5.473c-.011-.385-.023-.76-.027-1.117-.02-1.782-.083-3.591-.145-5.34-.048-1.375-.1-2.751-.126-4.126.628.3,1.227.574,1.817.829a1.4,1.4,0,0,0,1.427-.168,1.457,1.457,0,0,0,.611-1.3A1.13,1.13,0,0,0,655.137,180.042ZM641.3,185.194a4.736,4.736,0,0,0-3.943,1.283c-1.8,1.794-2.466,5.277-2.038,10.683-.91-.04-1.689-.095-2.428-.171-.073-.008-.152-.022-.232-.036a2.769,2.769,0,0,0-.466-.053h-.014a6.845,6.845,0,0,1-.182-1.175c-.013-.137-.026-.268-.041-.393-.457-3.837-.535-7.8-.611-11.624-.023-1.187-.047-2.372-.081-3.553,0-.024,0-.048,0-.071q1.582-.686,3.154-1.391,1.894-.848,3.78-1.714l.239-.108c.285-.13.607-.251.938-.375a9.048,9.048,0,0,0,1.938-.905,1.946,1.946,0,0,1,.269.13c.673.441,1.382.852,2.068,1.25.319.186.638.371.953.559,1.5.893,3.26,1.925,5.131,2.912a1.262,1.262,0,0,0-.441,1.014c.028,1.438.079,2.875.129,4.313.052,1.474.1,2.948.131,4.422.027,1.441.044,2.852-.03,4.278-.006.119-.007.275-.007.451,0,.529,0,1.516-.262,1.788a9.237,9.237,0,0,1-2.906.377l.01-.391C646.468,192.567,646.662,185.657,641.3,185.194Zm2.364,11.168c-.016.3-.03.588-.04.844-1.52.05-3.134.061-5.05.034l-.533-.009c-.175-2.036-.611-7.286,1.261-8.913a2.148,2.148,0,0,1,2.019-.39C644.066,188.559,643.814,193.443,643.663,196.361Zm-5.894,1.08h0Z" transform="translate(-599.466 -143.982)"/></g><g transform="translate(153.816 83.755)"><path d="M886.369,282.27c-.222-3.822.188-8.846-2.436-12-2.792-3.351-6.259-1.882-9.945-1.548-8.709.79-17.5,1.33-26.237,1.809-10.561.579-21.337.769-31.733-1.452a2.917,2.917,0,0,0-3.631,2.766c-1.284,18.155,1.27,34.569,1.589,52.712.076,4.344.012,8.686-.257,13.023-.235,3.787.157,7.464,4.137,9.048,3.7,1.473,8.473,1.077,12.4,1.276q7.436.378,14.884.453c11.056.107,22.106-.333,33.126-1.21,3.655-.291,3.687-6.03,0-5.737-11.385.906-22.8,1.344-34.223,1.2q-8.85-.113-17.687-.658c-1.48-.091-5.418.311-6.593-.714-1.286-1.123-.162-6.045-.107-7.6.7-20.048-2.627-38.5-1.721-58.373,15.782,2.678,32.012.884,47.863-.287,3.568-.263,7.252-.208,10.773-.848,1.983-.36,2.944-.938,3.513,1.244s.422,4.66.552,6.891c.588,10.139,1.028,18.565,1.319,28.716q.494,17.2.419,34.412c-.014,3.692,5.723,3.7,5.737,0C888.189,323.769,887.621,303.862,886.369,282.27Z" transform="translate(-812.028 -268.118)" fill="#0057ff"/><g transform="translate(15.534 19.933)"><path d="M876.3,309.393c-3.9-4.143-9.635-5.762-15.1-6.513a1.608,1.608,0,0,0-1.794,1.494,1.362,1.362,0,0,0-.789-.22c-5.952.089-12.187,3.975-15.768,8.542-5.148,6.564-4.85,16.313-.01,23.045,5.374,7.475,17.011,8.968,25.26,6.433,4.293-1.319,8.046-3.7,10.2-7.731a25.451,25.451,0,0,0,2.631-12.389C880.839,317.389,879.572,312.864,876.3,309.393Zm-6.4,29.043c-7.1,3.3-17.526,2.8-23.39-2.836-5.2-5-6.039-14.381-2.044-20.28,2.93-4.326,8.78-8.217,14.155-8.3a1.257,1.257,0,0,1,1.82-1.377c8.126,1.118,16.223,4.609,17.426,13.685C878.828,326.556,877.046,335.114,869.9,338.437Z" transform="translate(-839.106 -302.864)"/><path d="M871.059,331.321a5.454,5.454,0,0,0,4.349-3.807c1.033-3.633-2.442-5.986-5.532-6.653-3.259-.494-7.029.107-7.968,3.8-.822,3.237,1.444,5.664,4.335,6.508-4.263,1.388-6.724,6.689-6.957,10.893-.1,1.844,2.767,1.839,2.868,0,.15-2.7,1.786-6.716,4.357-7.926,5.206-2.449,6.372,4.969,7.49,8.358.576,1.745,3.347,1,2.766-.763C875.559,338.075,874.43,332.977,871.059,331.321Zm-6.385-5.893c.446-2.029,2.785-2.051,4.44-1.8,1.431.309,4.059,1.151,3.529,3.125-.544,2.027-3.161,2.12-4.819,1.845S864.23,327.44,864.673,325.428Z" transform="translate(-847.709 -310.473)"/></g></g><g transform="translate(60.998 84.044)"><path d="M732.48,284.682a91.38,91.38,0,0,0-1.326-9.99c-.505-2.432-1.327-4.229-3.851-5.072-2.922-.976-6.311-.926-9.359-.979-5.232-.089-10.471.131-15.694.393-13.228.662-29.867,1.22-43.077,2.151a2.876,2.876,0,0,0-2.682,2.377,3.214,3.214,0,0,0-4.569,2.417c-2.3,18.333-.15,37.372-1.16,55.816-.212,3.862-1.2,8.635.217,12.338,1.515,3.961,5.523,4.756,9.323,4.792,10.081.1,20.159-.122,30.24.123a292.836,292.836,0,0,1,35.5,2.828,2.951,2.951,0,0,0,3.529-2c3.042-10.493,3.7-21.736,3.969-32.6A274.3,274.3,0,0,0,732.48,284.682Zm-6.812-9.58h0C726.208,275.212,725.628,275.21,725.668,275.1Zm-.56-.863a.853.853,0,0,0,.071.416A.434.434,0,0,1,725.108,274.24Zm2.754,39.619c-.127,10.662-.547,21.68-3.178,32.084-17.979-2.422-36.05-2.834-54.182-2.787q-3.478.009-6.956.024c-1.833.006-4.341.43-6.1-.232-2.7-1.018-1.077-8.836-.95-11.153.476-8.692-.092-45.719,1.09-55.224a2.606,2.606,0,0,0,1.584.35c11.189-.788,25.812-1.141,37.009-1.814,8.95-.538,18.389-1.54,27.334-.431a11.489,11.489,0,0,1,1.249.2c.18.041.361.093.543.139.064.173.122.328.142.407a58.843,58.843,0,0,1,1.217,8.459A271.722,271.722,0,0,1,727.862,313.858Z" transform="translate(-650.229 -268.621)" fill="#0057ff"/><g transform="translate(14.998 25.042)"><path d="M679.8,315.142l32.809.282a1.435,1.435,0,0,0,0-2.868l-32.809-.282A1.435,1.435,0,0,0,679.8,315.142Z" transform="translate(-677.242 -312.274)"/><path d="M727.476,324.141c-16.379.928-32.788.558-49.182.5a1.435,1.435,0,0,0,0,2.868c16.395.061,32.8.431,49.182-.5C729.311,326.905,729.323,324.037,727.476,324.141Z" transform="translate(-676.601 -317.332)"/><path d="M717.6,337.97c-13.275,1.063-26.569.288-39.847-.289-1.845-.08-1.841,2.789,0,2.868,13.278.577,26.572,1.352,39.847.289C719.43,340.692,719.446,337.823,717.6,337.97Z" transform="translate(-676.373 -323.105)"/><path d="M717.081,350.5q-18.88,1.013-37.789.453c-1.847-.054-1.845,2.814,0,2.868q18.9.559,37.789-.453C718.917,353.269,718.929,350.4,717.081,350.5Z" transform="translate(-677.027 -328.57)"/><path d="M691,363.445c-3.9.206-7.806-.036-11.707.17-1.836.1-1.848,2.966,0,2.868,3.9-.206,7.806.036,11.707-.17C692.836,366.217,692.847,363.348,691,363.445Z" transform="translate(-677.028 -334.089)"/></g></g></g></g></g></svg>